<svg xmlns="http://www.w3.org/2000/svg" viewBox="0 0 560 560" fill="none" shape-rendering="auto"><metadata xmlns:rdf="http://www.w3.org/1999/02/22-rdf-syntax-ns#" xmlns:xsi="http://www.w3.org/2001/XMLSchema-instance" xmlns:dc="http://purl.org/dc/elements/1.1/" xmlns:dcterms="http://purl.org/dc/terms/"><rdf:RDF><rdf:Description><dc:title>Notionists</dc:title><dc:creator>Zoish</dc:creator><dc:source xsi:type="dcterms:URI">https://heyzoish.gumroad.com/l/notionists</dc:source><dcterms:license xsi:type="dcterms:URI">https://creativecommons.org/publicdomain/zero/1.0/</dcterms:license><dc:rights>Remix of „Notionists” (https://heyzoish.gumroad.com/l/notionists) by „Zoish”, licensed under „CC0 1.0” (https://creativecommons.org/publicdomain/zero/1.0/)</dc:rights></rdf:Description></rdf:RDF></metadata><mask id="viewboxMask"><rect width="560" height="560" rx="0" ry="0" x="0" y="0" fill="#fff" /></mask><g mask="url(#viewboxMask)"><rect fill="#ffffff" width="560" height="560" x="0" y="0" /><g transform="translate(136 328)"></g><g transform="translate(246 125)"><path d="M82 57.5c4.9-6 9.2-11.2 13.8-16.2 2.5-2.8 6-4 9-1.2 3.5 3 1.3 5.8-.8 8.8C96 60.4 86 70.1 80.5 83.4c-4 9.8-5.3 19-2.3 29.6 5.8 19.9 10.5 40 15.1 60.2 3.3 14.4-2.3 23.8-16 29-4 1.6-7.9 3.2-11.7 5-16.4 8-30.4 1.5-44.4-8.6 3.8-8 9.6-10.7 18.5-5.7 8.7 5 32.7.6 39.6-6.8 4.5-5 1.4-9.7 0-14.4-5.8-19.7-14-38.7-15.6-59.8a68.6 68.6 0 0 1 18.4-54.4Z" fill="#000"/></g><g transform="translate(-45 137)"></g><g transform="translate(-45 137)"><path fill-rule="evenodd" clip-rule="evenodd" d="m264.3 14.3 78.4-.5 125.6-.8 6.2-.2c7.2-.4 14.6-.7 21 2.4 10.1 5 10.7 15 11.3 24.4a172.3 172.3 0 0 1-8.8 79.6 50.5 50.5 0 0 1-32 30.5c-23.5 7.8-48 13.5-72 4.8a65.7 65.7 0 0 1-42.1-39c-1.2-3.2-2.7-6.4-4.1-9.5a58.9 58.9 0 0 1-7-23.5c-.2-4.7-5.7-8.1-11.7-8.1-7 0-10.7 4.5-13.6 9.9a56.8 56.8 0 0 0-4.6 14.3c-.8 3.6-1.7 7.3-3 10.8-14.2 37-38.8 55.3-78.1 54.5a100.6 100.6 0 0 1-66.7-27.4A61.5 61.5 0 0 1 142.2 87a311.6 311.6 0 0 0 0-12 399 399 0 0 1-59.6-20.4C64.2 47 45.8 39.8 26.6 35c-3.3-.8-5.5-2-6.8-4.9-4-8.3-9.6-15.5-16.6-24.5L.3 2.1l18.9 3.3C32 7.7 43.9 9.8 55.9 11.7c9.8 1.6 19.7 3.4 29.5 5.2 20.1 3.7 40.2 7.4 60.7 8.9 6.6.4 12.5.3 18.2-5.9 6.2-6.8 16.3-6.3 25-6l2.8.2c23.7.8 47.3 1 72.2.2ZM96.1 51.7c2.8 1.5 5.2 1.1 5.2-2.4 0-18.9-14.5-29-34.1-23.5 4 14 14.6 20.5 28.9 26Zm16 3.6c-2-1.5-3-4.2-5.6-11.3-3.5-6-5-10.6-3.7-18a38.7 38.7 0 0 1 11.4 21c1 3.5 2 7 3.6 10.2-2.7-.6-4.4-1-5.7-2Z" fill="#000"/><path d="M287 44.8c-.8-6 3-7.4 7-7.4 19 0 38 0 57.1.5 4.4 0 8.5 2 11.1 5.5-6.9 8.1-53.6 9.4-75.3 1.4Z" fill="#000"/><path d="M193 63.5c-1-.3 1 0-.2.4-6.6 2 50.7 52.8 55.8 48.5 3-2.5-49.5-46.3-55.7-49ZM213.3 39.7c-.9-.3 1 0-.1.4-6.7 2 50.7 52.8 55.7 48.5 3-2.5-49.5-46.3-55.6-49ZM388.2 63.5c-.8-.3 1 0 0 .4-6.7 2 50.6 52.8 55.7 48.5 3-2.5-49.5-46.3-55.7-49ZM408.6 39.7c-.9-.3 1 0-.1.4-6.6 2 50.7 52.8 55.7 48.5 3-2.5-49.5-46.3-55.6-49Z" fill="#fff"/></g><g transform="translate(119 114)"></g></g></svg>